<svg xmlns="http://www.w3.org/2000/svg" viewBox="0 0 32 32" fill="none">
  <rect width="32" height="32" rx="6" fill="#3B82F6"/>
  <path d="M8 12C8 10.8954 8.89543 10 10 10H22C23.1046 10 24 10.8954 24 12V14C24 15.1046 23.1046 16 22 16H10C8.89543 16 8 15.1046 8 14V12Z" fill="white"/>
  <path d="M10 19C10 18.4477 10.4477 18 11 18H21C21.5523 18 22 18.4477 22 19C22 19.5523 21.5523 20 21 20H11C10.4477 20 10 19.5523 10 19Z" fill="white" fill-opacity="0.8"/>
  <path d="M10 23C10 22.4477 10.4477 22 11 22H17C17.5523 22 18 22.4477 18 23C18 23.5523 17.5523 24 17 24H11C10.4477 24 10 23.5523 10 23Z" fill="white" fill-opacity="0.6"/>
</svg>
